<?xml version="1.0" encoding="UTF-8" standalone="no"?>
<!-- Created with Inkscape (http://www.inkscape.org/) -->

<svg
   width="150"
   height="150"
   viewBox="0 0 39.687499 39.6875"
   version="1.1"
   id="svg1"
   inkscape:version="1.3.2 (091e20e, 2023-11-25, custom)"
   sodipodi:docname="Movie-logo.svg"
   xmlns:inkscape="http://www.inkscape.org/namespaces/inkscape"
   xmlns:sodipodi="http://sodipodi.sourceforge.net/DTD/sodipodi-0.dtd"
   xmlns="http://www.w3.org/2000/svg"
   xmlns:svg="http://www.w3.org/2000/svg">
  <sodipodi:namedview
     id="namedview1"
     pagecolor="#ffffff"
     bordercolor="#666666"
     borderopacity="1.0"
     inkscape:showpageshadow="2"
     inkscape:pageopacity="0.0"
     inkscape:pagecheckerboard="0"
     inkscape:deskcolor="#d1d1d1"
     inkscape:document-units="mm"
     showgrid="false"
     inkscape:zoom="7.6995705"
     inkscape:cx="71.692311"
     inkscape:cy="73.380716"
     inkscape:window-width="2208"
     inkscape:window-height="1353"
     inkscape:window-x="1149"
     inkscape:window-y="214"
     inkscape:window-maximized="0"
     inkscape:current-layer="g1" />
  <defs
     id="defs1">
    <rect
       x="13.507246"
       y="14.546265"
       width="125.0719"
       height="61.436376"
       id="rect1" />
    <rect
       x="13.507246"
       y="14.546265"
       width="160.13879"
       height="62.73077"
       id="rect2" />
    <filter
       style="color-interpolation-filters:sRGB;"
       inkscape:label="Drop Shadow"
       id="filter46"
       x="-0.031251293"
       y="-0.043253604"
       width="1.076022"
       height="1.135311">
      <feFlood
         result="flood"
         in="SourceGraphic"
         flood-opacity="0.984314"
         flood-color="rgb(68,68,68)"
         id="feFlood45" />
      <feGaussianBlur
         result="blur"
         in="SourceGraphic"
         stdDeviation="0.400000"
         id="feGaussianBlur45" />
      <feOffset
         result="offset"
         in="blur"
         dx="0.500000"
         dy="1.300000"
         id="feOffset45" />
      <feComposite
         result="comp1"
         operator="in"
         in="flood"
         in2="offset"
         id="feComposite45" />
      <feComposite
         result="comp2"
         operator="over"
         in="SourceGraphic"
         in2="comp1"
         id="feComposite46" />
    </filter>
  </defs>
  <g
     inkscape:label="Layer 1"
     inkscape:groupmode="layer"
     id="layer1">
    <g
       id="g1"
       style="filter:url(#filter46)">
      <g
         id="g18"
         transform="matrix(0.81601915,-0.29614038,0.29587981,0.81673778,-2.0430271,6.1032729)"
         style="fill:#ff7e00;stroke:#000000;stroke-width:0.450932;stroke-dasharray:none;fill-opacity:1">
        <g
           id="g11"
           transform="rotate(-0.98662555,111.84477,98.923238)"
           style="fill:#ff7e00;stroke:#000000;stroke-width:0.450932;stroke-dasharray:none;fill-opacity:1">
          <path
             style="font-weight:bold;font-size:48px;line-height:1.25;font-family:'Segoe Print';-inkscape-font-specification:'Segoe Print Bold';letter-spacing:-0.08px;white-space:pre;fill:#ff7e00;stroke:#000000;stroke-width:0.450932;stroke-dasharray:none;fill-opacity:1"
             d="m 11.781853,14.890799 c -0.376925,0 0.565388,0.183503 0.565388,0.550509 0,0.456278 -0.548029,1.019186 -1.644088,1.688723 -1.0910977,0.664578 -2.1474793,0.996868 -3.1691443,0.996868 -0.902636,0 -1.7333587,-0.295093 -2.4921679,-0.885278 -0.7588094,-0.590185 -1.1382141,-1.450665 -1.1382141,-2.58144 0,-1.150613 0.396763,-2.427694 1.190289,-3.831243 C 5.8874419,9.4253883 6.8694305,8.2822148 8.0398817,7.3994169 9.2152924,6.516619 10.360946,6.07522 11.476842,6.07522 c 0.664578,0 1.195249,0.1983816 1.592012,0.5951446 0.396763,0.3967631 0.595145,0.86048 0.595145,1.3911505 0,0.5753065 -0.04464,0.9894281 -0.133908,1.2423646 -0.08927,0.2479769 -0.280213,0.461237 -0.572826,0.6397804 -0.292614,0.1785439 -0.530672,0.2678149 -0.714174,0.2678149 -0.188462,0 -0.352127,-0.06695 -0.490994,-0.200861 -0.138867,-0.1339077 -0.208301,-0.3149308 -0.208301,-0.5430696 0,-0.1587052 0.04216,-0.3893238 0.126468,-0.6918558 0.07935,-0.3025317 0.119031,-0.5554682 0.119031,-0.7588094 0,-0.342208 -0.116549,-0.513312 -0.349646,-0.513312 -0.714174,0 -1.5151401,0.3818844 -2.4028977,1.1456533 C 8.148994,9.4129895 7.3877049,10.362741 6.752884,11.498475 6.1230224,12.62925 5.8080916,13.628597 5.8080916,14.496516 c 0,0.575307 0.1661447,1.061342 0.4984339,1.458105 0.332289,0.396763 0.8183238,0.595145 1.4581043,0.595145 0.3769249,0 0.8505608,-0.101671 1.4209077,-0.305012 0.5753065,-0.203341 1.1059775,-0.478595 1.5920115,-0.825763 0.490995,-0.352128 1.18285,-0.528192 1.004307,-0.528192 z"
             id="path6"
             sodipodi:nodetypes="sscsssscssscsssscssscsssccss" />
          <path
             style="font-weight:bold;font-size:48px;line-height:1.25;font-family:'Segoe Print';-inkscape-font-specification:'Segoe Print Bold';letter-spacing:0px;white-space:pre;fill:#ff7e00;stroke:#000000;stroke-width:0.450932;stroke-dasharray:none;fill-opacity:1"
             d="m 17.106094,13.490909 c -1.087272,1.434538 -2.137338,2.151806 -3.150196,2.151806 -0.37207,0 -0.692463,-0.146761 -0.961181,-0.440283 C 12.726,14.90891 12.591641,14.534773 12.591641,14.08002 c 0,-1.09554 0.487826,-2.261361 1.463476,-3.497461 0.975652,-1.2402334 1.959571,-1.8603506 2.951758,-1.8603506 0.504362,0 0.835091,0.254248 0.992187,0.762744 0.475424,0 0.713135,0.1819011 0.713135,0.5457026 0,0.173633 -0.04547,0.487826 -0.136426,0.942578 -0.165364,0.851628 -0.248047,1.531689 -0.248047,2.040185 0,0.529167 0.03514,0.901237 0.10542,1.116211 0.07441,0.214974 0.128159,0.355534 0.161231,0.42168 0.03307,0.06615 0.132292,0.136427 0.297656,0.21084 0.165365,0.07855 0.248047,0.188102 0.248047,0.328662 0,0.21084 -0.107487,0.38654 -0.322461,0.5271 -0.21084,0.14056 -0.432015,0.210839 -0.663525,0.210839 -0.777214,0 -1.126546,-0.77928 -1.047998,-2.337841 z m -0.372071,-3.44165 c -0.417545,0 -0.961181,0.463021 -1.630908,1.389062 -0.665592,0.921908 -0.998388,1.705322 -0.998388,2.350244 0,0.338998 0.07028,0.508496 0.210839,0.508496 0.487826,0 1.087273,-0.432015 1.79834,-1.296045 0.715202,-0.868164 1.072803,-1.626774 1.072803,-2.27583 0,-0.206706 -0.04754,-0.370003 -0.142627,-0.489893 -0.09095,-0.124023 -0.194303,-0.186034 -0.310059,-0.186034 z"
             id="path7"
             sodipodi:nodetypes="cssscscscscscscscscsscscs" />
          <path
             style="font-weight:bold;font-size:48px;line-height:1.25;font-family:'Segoe Print';-inkscape-font-specification:'Segoe Print Bold';letter-spacing:-0.08px;white-space:pre;fill:#ff7e00;stroke:#000000;stroke-width:0.450932;stroke-dasharray:none;fill-opacity:1"
             d="m 21.273962,14.949301 c -0.297799,0 -0.14056,0.727604 -0.21084,1.314648 l -0.297657,2.437061 c -0.04961,0.396875 -0.146758,0.671793 -0.291455,0.824756 -0.140559,0.152962 -0.314192,0.229443 -0.520898,0.229443 -0.186035,0 -0.363802,-0.07028 -0.533301,-0.21084 -0.165365,-0.136426 -0.248047,-0.289388 -0.248047,-0.458886 0,-0.334863 0.05168,-0.721403 0.15503,-1.15962 0.615983,-2.459798 0.952913,-5.012614 1.010791,-7.658447 v -0.124023 c 0,-0.553971 0.01447,-0.9219072 0.04341,-1.1038082 0.03307,-0.1860353 0.121957,-0.3493328 0.26665,-0.4898927 0.148828,-0.1405599 0.357601,-0.2108399 0.626319,-0.2108399 0.450618,0 0.675927,0.3451986 0.675927,1.0355958 0,0.2811198 -0.05168,0.758609 -0.155029,1.43247 l -0.06201,0.427881 c 0.471289,-0.785482 1.031462,-1.4366046 1.680518,-1.9533687 0.649056,-0.5208984 1.229899,-0.7813476 1.742529,-0.7813476 0.463021,0 0.855762,0.1653646 1.178222,0.4960937 0.326596,0.3307292 0.489894,0.7462079 0.489894,1.2464356 0,1.335319 -0.518832,2.550748 -1.556495,3.646289 -1.033529,1.091406 -2.056722,1.637109 -3.06958,1.637109 -0.479557,0 -0.516014,-0.576709 -0.923974,-0.576709 z m 3.640087,-5.0415522 c -0.504361,0 -1.159618,0.4919592 -1.965771,1.4758782 -0.802018,0.983919 -1.203027,1.756999 -1.203027,2.319238 0,0.144694 0.07028,0.274919 0.210839,0.390674 0.144695,0.111621 0.312126,0.167432 0.502295,0.167432 0.525033,0 1.126546,-0.411344 1.804541,-1.234033 0.682129,-0.826823 1.023194,-1.624708 1.023194,-2.393653 0,-0.256315 -0.03927,-0.440283 -0.117823,-0.551904 C 25.089749,9.9656265 25.005,9.9077488 24.914049,9.9077488 Z M 27.798795,8.469077 c 0.06615,-0.4547526 0.208774,-0.9405111 0.427881,-1.4572755 0.219109,-0.5208985 0.477491,-0.7813477 0.775147,-0.7813477 0.194303,0 0.345198,0.062012 0.452684,0.1860352 0.107488,0.1240234 0.161232,0.2728515 0.161232,0.4464843 0,0.1198894 -0.04961,0.2955893 -0.148828,0.5270998 -0.07028,0.1488281 -0.138494,0.3431315 -0.20464,0.5829101 -0.02481,0.086816 -0.06408,0.2149739 -0.117821,0.3844727 -0.124025,0.4216797 -0.186037,0.830957 -0.186037,1.227832 0,0.5415681 -0.05788,0.8867671 -0.173633,1.0355951 -0.111621,0.148828 -0.274918,0.223242 -0.489892,0.223242 -0.198437,0 -0.363802,-0.09922 -0.496093,-0.297656 -0.128157,-0.198437 -0.192236,-0.415478 -0.192236,-0.6511225 0,-0.285254 0.06408,-0.7606772 0.192236,-1.4262695 z m 5.308855,5.34541 c 0,-0.223854 -0.37206,-0.496094 -1.066601,-0.818555 -0.851628,-0.409277 -1.395265,-0.760677 -1.63091,-1.054199 -0.235643,-0.297657 -0.353465,-0.620118 -0.353465,-0.967383 0,-0.731738 0.409277,-1.3704588 1.227831,-1.9161619 0.822688,-0.5498371 1.589566,-0.8247557 2.300634,-0.8247557 0.698666,0 1.047998,0.3038574 1.047998,0.9115722 0,0.1612305 -0.08062,0.3059245 -0.241845,0.434082 -0.157097,0.1281576 -0.291456,0.1922364 -0.403076,0.1922364 -0.04547,0 -0.126088,-0.028939 -0.241846,-0.086816 -0.115754,-0.057877 -0.204637,-0.086816 -0.266649,-0.086816 -0.367936,0 -0.77308,0.1240235 -1.21543,0.3720705 -0.442351,0.2480465 -0.663527,0.5374345 -0.663527,0.8681635 0,0.161231 0.07855,0.318327 0.235646,0.471289 0.157096,0.148828 0.477489,0.33693 0.961181,0.564307 0.715202,0.338997 1.186492,0.644922 1.413867,0.917773 0.227376,0.272851 0.341063,0.574642 0.341063,0.905371 0,0.603581 -0.409276,1.107943 -1.22783,1.513086 -0.814421,0.401009 -1.730127,0.601514 -2.747119,0.601514 -0.748274,0 -1.122412,-0.270785 -1.122412,-0.812354 0,-0.198437 0.07855,-0.367936 0.235643,-0.508496 0.157098,-0.14056 0.332798,-0.21084 0.5271,-0.21084 0.07855,0 0.200505,0.02894 0.365869,0.08682 0.165364,0.06201 0.318327,0.09302 0.458888,0.09302 0.388606,0 0.795816,-0.06201 1.221631,-0.186035 0.425814,-0.124023 0.843359,-0.23151 0.843359,-0.458886 z"
             id="path8"
             sodipodi:nodetypes="scccscsccsccsscccscscsssscscscscsccssscccscscscsccscsscsssssccsscsssscssss" />
        </g>
      </g>
      <path
         style="font-weight:bold;font-size:48px;line-height:1.25;font-family:'Segoe Print';-inkscape-font-specification:'Segoe Print Bold';white-space:pre;stroke-width:0.39158333;stroke:#000000;fill:#ff7e00;stroke-dasharray:none;stroke-linejoin:round;fill-opacity:1"
         d="M 10.963184,23.346626 8.8091067,26.25754 c -0.9961788,1.392926 -1.7637975,2.089389 -2.3028555,2.089389 -0.2501232,0 -0.472215,-0.142311 -0.6662759,-0.426934 C 5.6459145,27.63106 5.4475412,27.193344 5.2448553,26.606849 5.0421694,26.020354 4.8998581,25.57617 4.8179214,25.274298 4.6324853,24.575679 4.5074237,24.178931 4.4427368,24.084057 l -0.3299037,1.681862 c -0.1034991,0.54337 -0.2091543,1.043616 -0.3169659,1.500737 -0.1078116,0.452809 -0.2264046,0.998336 -0.3557783,1.636581 -0.1250614,0.638244 -0.2026859,1.119084 -0.2328734,1.442519 -0.00863,0.107812 -0.1121231,0.224248 -0.3104974,0.349309 -0.1940606,0.125062 -0.3428407,0.187593 -0.4463398,0.187593 -0.2069982,0 -0.4010592,-0.09703 -0.5821828,-0.291092 -0.176811,-0.189748 -0.2652163,-0.373028 -0.2652163,-0.549839 0,-0.413996 0.086249,-0.940117 0.2587477,-1.578361 0.7115566,-2.613354 1.1169282,-4.25856 1.2161148,-4.935616 0.1034992,-0.677058 0.1552488,-1.239834 0.1552488,-1.68833 0,-0.232873 0.1013429,-0.411841 0.3040288,-0.536902 0.2026859,-0.125062 0.4679022,-0.187592 0.7956495,-0.187592 0.1768113,0 0.3536223,0.116436 0.5304332,0.34931 0.1768113,0.232872 0.2932476,0.448496 0.3493097,0.646869 l -0.00647,-0.01294 0.8991488,2.516322 c 0.3579346,1.004805 0.5972765,1.643049 0.7180254,1.914735 0.4657464,-0.504558 1.1557404,-1.382145 2.0699828,-2.63276 0.914242,-1.246302 1.5395503,-2.04842 1.8759233,-2.406355 0.336372,-0.357935 0.573557,-0.536902 0.711556,-0.536902 0.211311,0 0.44634,0.08841 0.705088,0.265217 0.258748,0.176811 0.388122,0.327747 0.388122,0.452809 0,0.09487 -0.08409,0.7439 -0.25228,1.947077 -0.116436,0.849556 -0.222092,1.800455 -0.316966,2.852696 -0.09487,1.052241 -0.142311,1.673236 -0.142311,1.862985 0,0.232872 0.03018,0.472214 0.09056,0.718025 0.04312,0.189748 0.06469,0.368715 0.06469,0.536901 0,0.426935 -0.07546,0.718026 -0.226404,0.873274 -0.146623,0.155249 -0.375185,0.232874 -0.685682,0.232874 -0.564933,0 -0.847399,-0.424778 -0.847399,-1.274333 0,-0.802119 0.07331,-1.781048 0.219935,-2.936789 0.146624,-1.160053 0.280311,-2.050577 0.40106,-2.671572 0.04312,-0.224248 0.07116,-0.379496 0.08409,-0.465746 z m 7.404276,2.535554 c -0.244817,0.855032 -0.7107,1.576695 -1.397649,2.164986 -0.683295,0.584638 -1.36659,0.876957 -2.049885,0.876957 -0.54079,0 -0.986576,-0.197315 -1.337359,-0.591946 -0.350782,-0.398284 -0.526173,-0.886092 -0.526173,-1.463421 0,-0.942728 0.321551,-1.87084 0.964652,-2.784336 0.643101,-0.913497 1.423226,-1.370244 2.340377,-1.370244 0.624831,0 1.130908,0.232027 1.51823,0.696084 0.387323,0.460402 0.580984,1.010326 0.580984,1.649773 0,0.277703 -0.03106,0.549926 -0.09318,0.816666 z m -2.850107,-1.731988 c -0.255779,0.226546 -0.506077,0.588291 -0.750895,1.085233 -0.244817,0.496942 -0.367226,0.99571 -0.367226,1.496307 0,0.30328 0.05481,0.553578 0.16443,0.750893 0.113274,0.197316 0.26126,0.295973 0.44396,0.295973 0.453094,0 0.924458,-0.268568 1.414091,-0.805703 0.489634,-0.537136 0.734451,-1.140043 0.734451,-1.808723 0,-0.37636 -0.08039,-0.685122 -0.241163,-0.926285 -0.157121,-0.244817 -0.378188,-0.367225 -0.663198,-0.367225 -0.270395,0 -0.513384,0.09318 -0.72897,0.27953 z m 5.004131,4.456034 c 0.0036,-0.241164 -0.140679,-0.760029 -0.432997,-1.556598 -0.588292,-1.574867 -0.882438,-2.696641 -0.882438,-3.36532 0,-0.599253 0.235683,-0.89888 0.707046,-0.89888 0.460403,0 0.690603,0.274049 0.690603,0.822147 0,0.350782 0.0073,0.60108 0.02193,0.750893 0.01827,0.14616 0.07491,0.414728 0.16991,0.805704 0.09866,0.387323 0.195488,0.7107 0.290492,0.970133 0.05481,0.157121 0.120581,0.361744 0.197315,0.613869 0.04385,0.157121 0.08222,0.266742 0.115101,0.328859 0.02193,-0.03289 0.09866,-0.175391 0.2302,-0.427516 0.07674,-0.153468 0.336167,-0.588292 0.7783,-1.304473 0.442133,-0.719834 0.829455,-1.29351 1.161966,-1.721027 0.336167,-0.427515 0.586464,-0.688775 0.750894,-0.783779 0.164431,-0.095 0.337994,-0.142505 0.520693,-0.142505 0.190007,0 0.345301,0.06212 0.465883,0.186353 0.124236,0.124235 0.186353,0.275876 0.186353,0.454921 0,0.211931 -0.153468,0.420208 -0.460403,0.624831 -0.299626,0.204624 -0.708873,0.672333 -1.227738,1.40313 -0.515211,0.730797 -1.070616,1.649774 -1.666217,2.756932 -0.336166,0.632139 -0.63762,0.948208 -0.904361,0.948208 -0.2302,0 -0.46771,-0.155294 -0.712526,-0.465882 z m 8.133769,-8.089922 c 0,0.259433 -0.116927,0.487807 -0.350783,0.685122 -0.233854,0.193662 -0.436651,0.290492 -0.608387,0.290492 -0.219239,0 -0.414728,-0.09135 -0.586464,-0.274049 -0.168083,-0.1827 -0.252126,-0.365398 -0.252126,-0.548098 0,-0.263086 0.08405,-0.475018 0.252126,-0.635793 0.168084,-0.164429 0.409246,-0.246644 0.723489,-0.246644 0.244815,0 0.442131,0.07308 0.591946,0.219239 0.153466,0.142506 0.230199,0.312416 0.230199,0.509731 z m -2.647311,4.505363 v 0.0055 c 0.116928,-0.665025 0.175392,-1.045039 0.175392,-1.140043 0,-0.270394 0.05846,-0.496941 0.17539,-0.679641 0.120583,-0.182699 0.286837,-0.274048 0.498769,-0.274048 0.248471,0 0.442133,0.05846 0.580985,0.175391 0.138851,0.116928 0.208276,0.248471 0.208276,0.39463 0,0.14616 -0.0676,0.447614 -0.202797,0.904361 l -0.03289,0.120582 c -0.200968,0.705219 -0.32155,1.280722 -0.361745,1.726508 -0.04019,0.445785 -0.06029,0.805702 -0.06029,1.079751 0,0.222893 0.03837,0.520693 0.115102,0.8934 0.01097,0.06577 0.01644,0.120581 0.01644,0.164429 0,0.08405 -0.08039,0.197315 -0.241163,0.339821 -0.15712,0.142505 -0.327033,0.213757 -0.509731,0.213757 -0.482327,0 -0.72349,-0.365398 -0.72349,-1.096195 0,-0.621177 0.0877,-1.377552 0.263087,-2.269124 0.03654,-0.197315 0.06943,-0.383669 0.09866,-0.55906 z m 7.739139,1.753912 c 0,0.380015 -0.319724,0.834935 -0.959172,1.364763 -0.639447,0.526174 -1.361109,0.789261 -2.164986,0.789261 -0.617524,0 -1.103503,-0.193661 -1.457938,-0.580983 -0.354438,-0.390977 -0.531655,-0.933594 -0.531655,-1.62785 0,-1.023116 0.361743,-1.982287 1.085231,-2.877513 0.723489,-0.895227 1.496308,-1.34284 2.318455,-1.34284 0.409247,0 0.738105,0.129717 0.986576,0.389149 0.248471,0.259434 0.372707,0.568195 0.372707,0.926286 0,0.635794 -0.305108,1.242355 -0.915325,1.819685 -0.610215,0.573675 -1.392167,0.970132 -2.345858,1.189371 -0.10962,0.02558 -0.164428,0.09135 -0.164428,0.197315 0,0.175391 0.07673,0.343475 0.2302,0.50425 0.157122,0.157122 0.365401,0.235682 0.624832,0.235682 0.734452,0 1.46342,-0.378188 2.186909,-1.134562 0.138852,-0.146159 0.27405,-0.219239 0.405593,-0.219239 0.219239,0 0.328859,0.122409 0.328859,0.367225 z m -3.677737,-0.970132 c 0.57733,-0.116928 1.085235,-0.363572 1.523713,-0.739932 0.442133,-0.376361 0.663198,-0.718008 0.663198,-1.024943 0,-0.120581 -0.03471,-0.221066 -0.10414,-0.301454 -0.06577,-0.08404 -0.151638,-0.126062 -0.257605,-0.126062 -0.317895,0 -0.670507,0.233854 -1.057829,0.701565 -0.387323,0.46771 -0.643102,0.964651 -0.767337,1.490826 z m 7.169117,1.46342 c -0.01461,-0.197315 -0.328851,-0.438478 -0.942727,-0.723489 -0.752721,-0.361744 -1.233218,-0.672333 -1.441497,-0.931766 -0.208278,-0.263086 -0.312416,-0.548097 -0.312416,-0.855032 0,-0.646755 0.361745,-1.211296 1.085235,-1.693622 0.727141,-0.48598 1.404956,-0.72897 2.033441,-0.72897 0.617525,0 0.926286,0.268568 0.926286,0.805703 0,0.142506 -0.07126,0.270396 -0.213757,0.383669 -0.138852,0.113274 -0.257608,0.169911 -0.356265,0.169911 -0.04019,0 -0.111446,-0.02558 -0.213757,-0.07674 -0.102311,-0.05116 -0.180873,-0.07674 -0.235684,-0.07674 -0.325203,0 -0.683294,0.109619 -1.074271,0.328858 -0.390975,0.21924 -0.586464,0.475018 -0.586464,0.767337 0,0.142506 0.06943,0.281357 0.208278,0.416554 0.138851,0.131544 0.422033,0.297801 0.849551,0.498769 0.63214,0.299627 1.048694,0.570022 1.249662,0.811185 0.200968,0.241163 0.301454,0.507903 0.301454,0.800222 0,0.533482 -0.361744,0.979268 -1.085233,1.337358 -0.719836,0.354437 -1.529194,0.531655 -2.428074,0.531655 -0.66137,0 -0.992055,-0.239336 -0.992055,-0.718008 0,-0.175391 0.06943,-0.325204 0.208276,-0.44944 0.138852,-0.124235 0.294147,-0.186352 0.465883,-0.186352 0.06943,0 0.177218,0.02558 0.323378,0.07674 0.146158,0.05481 0.281357,0.08222 0.405593,0.08222 0.343475,0 0.703391,-0.05481 1.079751,-0.164429 0.376361,-0.10962 0.624832,-0.244817 0.745412,-0.405592 z"
         id="text2"
         inkscape:label="Movies"
         aria-label="Movies"
         sodipodi:nodetypes="ccscscccccccscsccsssscccccsssscsscscsscccccscssscscccsscssscsccccsssccccccccsscscccscscscscscsccscsssccsscscsscscscscsssssccscscssccscssccccscsscsssssccsscsssscssc" />
    </g>
  </g>
</svg>
